HIERARCHY
ROOT Hips
{
	OFFSET 0.00000 0.00000 0.00000
	CHANNELS 6 Xposition Yposition Zposition Zrotation Yrotation Xrotation 
	JOINT LHipJoint
	{
		OFFSET 0 0 0
		CHANNELS 3 Zrotation Yrotation Xrotation
		JOINT LeftUpLeg
		{
			OFFSET 1.41261 -1.82971 0.84908
			CHANNELS 3 Zrotation Yrotation Xrotation
			JOINT LeftLeg
			{
				OFFSET 2.52554 -6.93888 0.00000
				CHANNELS 3 Zrotation Yrotation Xrotation
				JOINT LeftFoot
				{
					OFFSET 2.56654 -7.05152 0.00000
					CHANNELS 3 Zrotation Yrotation Xrotation
					JOINT LeftToeBase
					{
						OFFSET 0.21698 -0.59616 1.85369
						CHANNELS 3 Zrotation Yrotation Xrotation
						End Site
						{
							OFFSET 0.00000 -0.00000 0.97832
						}
					}
				}
			}
		}
	}
	JOINT RHipJoint
	{
		OFFSET 0 0 0
		CHANNELS 3 Zrotation Yrotation Xrotation
		JOINT RightUpLeg
		{
			OFFSET -1.12808 -1.82971 0.84907
			CHANNELS 3 Zrotation Yrotation Xrotation
			JOINT RightLeg
			{
				OFFSET -2.53425 -6.96280 0.00000
				CHANNELS 3 Zrotation Yrotation Xrotation
				JOINT RightFoot
				{
					OFFSET -2.58413 -7.09983 0.00000
					CHANNELS 3 Zrotation Yrotation Xrotation
					JOINT RightToeBase
					{
						OFFSET -0.26437 -0.72636 1.92241
						CHANNELS 3 Zrotation Yrotation Xrotation
						End Site
						{
							OFFSET -0.00000 -0.00000 1.02667
						}
					}
				}
			}
		}
	}
	JOINT LowerBack
	{
		OFFSET 0 0 0
		CHANNELS 3 Zrotation Yrotation Xrotation
		JOINT Spine
		{
			OFFSET -0.02096 2.02288 -0.14752
			CHANNELS 3 Zrotation Yrotation Xrotation
			JOINT Spine1
			{
				OFFSET 0.03477 2.03136 -0.02358
				CHANNELS 3 Zrotation Yrotation Xrotation
				JOINT Neck
				{
					OFFSET 0 0 0
					CHANNELS 3 Zrotation Yrotation Xrotation
					JOINT Neck1
					{
						OFFSET 0.00174 1.74359 0.19336
						CHANNELS 3 Zrotation Yrotation Xrotation
						JOINT Head
						{
							OFFSET -0.03054 1.76140 -0.17751
							CHANNELS 3 Zrotation Yrotation Xrotation
							End Site
							{
								OFFSET -0.00863 1.77239 -0.08120
							}
						}
					}
				}
				JOINT LeftShoulder
				{
					OFFSET 0 0 0
					CHANNELS 3 Zrotation Yrotation Xrotation
					JOINT LeftArm
					{
						OFFSET 3.68685 1.32687 -0.67367
						CHANNELS 3 Zrotation Yrotation Xrotation
						JOINT LeftForeArm
						{
							OFFSET 4.76468 -0.00000 -0.00000
							CHANNELS 3 Zrotation Yrotation Xrotation
							JOINT LeftHand
							{
								OFFSET 3.52712 -0.00000 -0.00000
								CHANNELS 3 Zrotation Yrotation Xrotation
								JOINT LeftFingerBase
								{
									OFFSET 0 0 0
									CHANNELS 3 Zrotation Yrotation Xrotation
									JOINT LeftHandIndex1
									{
										OFFSET 0.85956 -0.00000 -0.00000
										CHANNELS 3 Zrotation Yrotation Xrotation
										End Site
										{
											OFFSET 0.69300 -0.00000 -0.00000
										}
									}
								}
								JOINT LThumb
								{
									OFFSET 0 0 0
									CHANNELS 3 Zrotation Yrotation Xrotation
									End Site
									{
										OFFSET 0.70358 -0.00000 0.70358
									}
								}
							}
						}
					}
				}
				JOINT RightShoulder
				{
					OFFSET 0 0 0
					CHANNELS 3 Zrotation Yrotation Xrotation
					JOINT RightArm
					{
						OFFSET -3.31304 1.28268 -0.97357
						CHANNELS 3 Zrotation Yrotation Xrotation
						JOINT RightForeArm
						{
							OFFSET -4.90577 -0.00000 -0.00000
							CHANNELS 3 Zrotation Yrotation Xrotation
							JOINT RightHand
							{
								OFFSET -3.42692 -0.00000 0.00000
								CHANNELS 3 Zrotation Yrotation Xrotation
								JOINT RightFingerBase
								{
									OFFSET 0 0 0
									CHANNELS 3 Zrotation Yrotation Xrotation
									JOINT RightHandIndex1
									{
										OFFSET -0.74096 -0.00000 -0.00000
										CHANNELS 3 Zrotation Yrotation Xrotation
										End Site
										{
											OFFSET -0.59738 -0.00000 -0.00000
										}
									}
								}
								JOINT RThumb
								{
									OFFSET 0 0 0
									CHANNELS 3 Zrotation Yrotation Xrotation
									End Site
									{
										OFFSET -0.60650 -0.00000 0.60650
									}
								}
							}
						}
					}
				}
			}
		}
	}
}
MOTION
Frames: 11
Frame Time: .0083333
-0.0577 17.92 -0.1662 0 0 0 0 0 0 -21 0 0 0 0 0 0 0 0 0 0 0 0 0 0 21 0 0 0 0 0 0 0 0 0 0 0 0 0 0 0 0 0 0 0 0 0 0 -16 0 0 21 0 0 11 0 0 0 -8 0 0 0 0 0 0 0 0 0 0 0 0 0 0 0 0 0 0 0 0 8 0 0 0 0 0 0 0 0 0 0 0 0 0 0 0 0 0
-0.0577 17.9200 -0.1662 -1.4429 -0.5044 1.5570 0.0000 0.0000 0.0000 -14.6571 3.8871 -2.0714 0.3173 3.6209 10.0125 0.3723 -1.5133 -11.0977 2.5460 -9.9210 -28.7214 0.0000 0.0000 0.0000 14.8828 1.6418 -5.4435 -1.2960 -7.2128 20.3474 -0.7494 -1.2078 -16.8340 -0.5742 -4.8528 13.4893 -6.0699 -1.9146 8.5765 1.2275 -3.0955 -0.0010 5.0717 -1.3881 -4.4255 -11.0869 -12.2799 -4.7093 9.0569 -16.7213 10.6616 3.2887 -8.1717 5.6808 -0.0000 0.0000 0.0000 -93.2853 2.1743 -5.0292 18.0055 -28.1643 -4.5519 -0.0000 -0.0000 6.6238 7.5508 -7.8927 -1.0428 -7.1250 0.0000 -0.0000 -13.9460 22.0885 7.9095 -0.0000 0.0000 0.0000 90.7682 5.0144 -1.6626 -9.2890 15.6198 -1.2768 0.0000 0.0000 14.6766 -9.6986 -36.7450 5.8380 7.1250 -0.0000 -0.0000 30.8257 -64.5542 -15.2731
-0.1105 17.9182 -0.1775 -1.5764 -0.5285 1.5007 0.0000 0.0000 0.0000 -14.3166 3.6973 -2.0222 0.3227 3.6515 10.0981 0.3705 -1.3145 -11.1132 2.5523 -9.9323 -28.7579 0.0000 0.0000 0.0000 15.3441 1.3370 -4.7768 -1.1720 -6.8716 19.3356 -0.7259 -1.4023 -16.6616 -0.3727 -3.9213 10.8553 -5.7352 -1.9512 8.6019 1.2616 -3.1123 -0.0603 4.9239 -1.3987 -4.5149 -11.7331 -12.1872 -3.6289 9.8877 -16.6808 9.6619 3.7254 -8.1785 5.3135 -0.0000 -0.0000 0.0000 -93.1551 1.8375 -5.8254 17.8696 -27.9899 -4.4879 -0.0000 -0.0000 6.2450 8.4190 -7.8422 -1.1569 -7.1250 0.0000 -0.0000 -13.3301 22.1173 7.5313 -0.0000 -0.0000 0.0000 90.7521 5.0653 -3.4468 -8.8758 14.9622 -1.1678 0.0000 0.0000 16.8013 -9.3518 -37.3313 5.7032 7.1250 -0.0000 -0.0000 31.9243 -64.9453 -16.1571
-0.1649 17.9185 -0.1921 -1.7539 -0.5946 1.5172 0.0000 0.0000 0.0000 -13.9586 3.3471 -2.0026 0.3261 3.6704 10.1511 0.3572 -0.8791 -11.0151 2.6055 -10.0272 -29.0650 0.0000 0.0000 0.0000 15.8296 1.2928 -4.3102 -1.0683 -6.5707 18.4496 -0.6976 -1.4760 -16.3782 -0.3012 -3.5285 9.7537 -5.3249 -1.9784 8.5831 1.2951 -3.1052 -0.0766 4.7263 -1.4028 -4.5414 -11.3051 -12.1242 -4.5650 9.1882 -16.4907 10.2799 3.4028 -8.0688 5.5439 -0.0000 0.0000 0.0000 -93.0354 1.3691 -6.6991 17.7430 -27.8269 -4.4286 -0.0000 -0.0000 6.0964 9.0051 -7.7195 -1.2195 -7.1250 0.0000 -0.0000 -12.9201 22.2233 7.2553 -0.0000 0.0000 0.0000 90.7771 5.2914 -5.2960 -8.5069 14.3712 -1.0744 0.0000 0.0000 19.0622 -9.0422 -38.0611 5.6033 7.1250 -0.0000 -0.0000 33.2054 -65.4556 -17.2585
-0.2190 17.9254 -0.2117 -2.0607 -0.7911 1.5396 0.0000 0.0000 0.0000 -13.4644 3.0185 -1.9458 0.3250 3.6641 10.1334 0.3422 -0.2463 -10.9666 2.5945 -10.0078 -29.0019 0.0000 0.0000 0.0000 16.4862 1.5704 -4.0790 -1.0127 -6.4029 17.9581 -0.6652 -1.6619 -16.0959 -0.2780 -3.3911 9.3694 -4.8062 -1.9756 8.5790 1.3668 -3.0454 -0.0491 4.5012 -1.3849 -4.5393 -11.1149 -12.0313 -5.0260 8.9212 -16.3080 10.4134 3.2845 -7.9709 5.6046 -0.0000 0.0000 0.0000 -92.9461 0.8212 -7.5716 17.5961 -27.6369 -4.3602 -0.0000 -0.0000 6.0286 9.4460 -7.5055 -1.2449 -7.1250 0.0000 -0.0000 -12.6198 22.4232 7.0191 -0.0000 0.0000 0.0000 90.8210 5.6357 -7.4642 -8.0560 13.6437 -0.9653 0.0000 0.0000 20.9660 -9.6882 -36.8359 5.8440 7.1250 -0.0000 -0.0000 30.9486 -64.6273 -15.3918
-0.2688 17.9382 -0.2320 -2.4640 -1.0737 1.5742 0.0000 0.0000 0.0000 -12.8879 2.7503 -1.8504 0.3167 3.6175 10.0028 0.3275 0.4565 -10.9854 2.4454 -9.7380 -28.1323 0.0000 0.0000 0.0000 17.2502 2.0089 -4.0446 -0.9990 -6.3606 17.8344 -0.6416 -1.8614 -15.9169 -0.2673 -3.3257 9.1868 -4.1787 -1.9497 8.5480 1.4981 -2.9399 0.0031 4.2698 -1.3477 -4.5024 -11.2293 -11.9279 -4.9751 9.0709 -16.1531 10.0602 3.3744 -7.8962 5.4926 0.0000 0.0000 0.0000 -92.9832 0.2237 -8.4499 17.3808 -27.3570 -4.2608 -0.0000 -0.0000 6.0984 9.8974 -7.5230 -1.3086 -7.1250 0.0000 -0.0000 -12.2937 22.3939 6.8375 0.0000 0.0000 0.0000 90.7333 5.9742 -9.0351 -7.8300 13.2769 -0.9127 0.0000 0.0000 23.0544 -8.8958 -37.9466 5.4977 7.1250 -0.0000 -0.0000 33.2048 -65.3212 -17.1565
-0.3182 17.9488 -0.2525 -2.7456 -1.2350 1.6664 0.0000 0.0000 0.0000 -12.4507 2.4780 -1.8322 0.3037 3.5435 9.7958 0.3058 1.0313 -10.8716 2.2803 -9.4270 -27.1405 0.0000 0.0000 0.0000 17.8113 2.3223 -4.1267 -0.9901 -6.3332 17.7543 -0.6284 -1.9239 -15.7924 -0.2944 -3.4891 9.6435 -3.6668 -1.9515 8.4607 1.6359 -2.8816 0.0649 4.1125 -1.3325 -4.4120 -11.6664 -11.7659 -4.1691 9.7479 -15.9680 8.8530 3.7373 -7.8230 5.0582 0.0000 0.0000 0.0000 -93.1347 -0.3232 -9.0746 17.2011 -27.1222 -4.1786 -0.0000 -0.0000 6.0963 10.3793 -7.6627 -1.3991 -7.1250 0.0000 -0.0000 -11.9369 22.2417 6.6728 0.0000 0.0000 0.0000 90.5743 6.1960 -9.7400 -7.6430 12.9725 -0.8702 0.0000 0.0000 23.5121 -9.2891 -37.4635 5.6815 7.1250 -0.0000 -0.0000 32.1598 -65.0367 -16.3552
-0.3717 17.9543 -0.2781 -2.8033 -1.2275 1.7458 0.0000 0.0000 0.0000 -12.2152 2.2588 -1.9008 0.2952 3.4937 9.6566 0.2861 1.3152 -10.6699 2.1967 -9.2643 -26.6256 0.0000 0.0000 0.0000 18.0904 2.4586 -4.2169 -0.9769 -6.2919 17.6339 -0.6148 -1.9726 -15.6560 -0.3342 -3.7153 10.2770 -3.4449 -2.0171 8.4713 1.7225 -2.9432 0.1115 4.0839 -1.3689 -4.3697 -11.4082 -11.6422 -4.4325 9.4142 -15.7342 8.6398 3.6150 -7.7088 4.9627 -0.0000 0.0000 0.0000 -93.3037 -0.7077 -9.3246 17.1288 -27.0273 -4.1457 -0.0000 -0.0000 5.8848 11.0210 -7.6950 -1.4938 -7.1250 0.0000 -0.0000 -11.4727 22.1904 6.4163 -0.0000 0.0000 0.0000 90.4486 6.3035 -9.6742 -7.6064 12.9128 -0.8620 0.0000 0.0000 23.4809 -9.3656 -37.1958 5.6940 7.1250 -0.0000 -0.0000 31.7375 -64.8371 -15.9748
-0.4231 17.9567 -0.3088 -2.5546 -1.0905 1.8464 0.0000 0.0000 0.0000 -12.3651 2.0113 -2.0818 0.2939 3.4859 9.6345 0.2734 1.3869 -10.4828 2.1237 -9.1190 -26.1684 0.0000 0.0000 0.0000 17.9594 2.3674 -4.4277 -0.9656 -6.2564 17.5301 -0.6045 -1.9077 -15.4999 -0.3782 -3.9494 10.9345 -3.5138 -2.1415 8.5632 1.7252 -3.1181 0.1241 4.1494 -1.4537 -4.3880 -11.1579 -11.4379 -4.6930 9.1525 -15.4042 8.4563 3.5249 -7.5448 4.8740 0.0000 -0.0000 0.0000 -93.4772 -0.9459 -9.1634 17.1231 -27.0198 -4.1431 -0.0000 -0.0000 5.5307 11.4229 -7.5394 -1.5186 -7.1250 0.0000 -0.0000 -11.1926 22.3333 6.2162 0.0000 -0.0000 0.0000 90.2820 6.3276 -8.6509 -7.7054 13.0742 -0.8843 0.0000 0.0000 23.0354 -8.9139 -37.5067 5.4549 7.1250 -0.0000 -0.0000 32.6082 -64.9674 -16.5541
-0.4742 17.9566 -0.3414 -2.1750 -0.8157 1.9947 0.0000 0.0000 0.0000 -12.6847 1.6484 -2.3800 0.2999 3.5214 9.7340 0.2673 1.3970 -10.3781 2.0027 -8.8718 -25.3950 0.0000 0.0000 0.0000 17.6415 2.0998 -4.7350 -0.9524 -6.2148 17.4090 -0.5990 -1.7987 -15.3805 -0.4126 -4.1231 11.4232 -3.6842 -2.2898 8.6432 1.6984 -3.3360 0.1315 4.2458 -1.5582 -4.3964 -10.9812 -11.2654 -5.0040 8.9334 -15.1183 8.3382 3.4483 -7.4008 4.8290 -0.0000 -0.0000 0.0000 -93.6366 -1.1487 -8.5255 17.1377 -27.0389 -4.1497 -0.0000 -0.0000 5.2436 11.3462 -7.1888 -1.4384 -7.1250 0.0000 -0.0000 -11.2704 22.6860 6.1683 -0.0000 -0.0000 0.0000 90.0864 6.3071 -6.9319 -7.8909 13.3759 -0.9267 0.0000 0.0000 21.7193 -8.8296 -37.5470 5.4077 7.1250 -0.0000 -0.0000 32.7482 -64.9768 -16.6394
-0.5305 17.9562 -0.3748 -2.1047 -0.4312 2.1181 0.0000 0.0000 0.0000 -12.5559 1.2700 -2.7781 0.3217 3.6460 10.0828 0.2771 1.3797 -10.5449 1.8727 -8.5958 -24.5390 0.0000 0.0000 0.0000 17.7436 1.8845 -4.9462 -0.9351 -6.1598 17.2487 -0.5857 -1.9269 -15.2821 -0.3983 -4.0519 11.2229 -3.5962 -2.4435 8.7552 1.7658 -3.5319 0.1604 4.2941 -1.6565 -4.4107 -10.7782 -11.1284 -5.2893 8.6997 -14.8851 8.2178 3.3597 -7.2835 4.7821 0.0000 -0.0000 0.0000 -93.7562 -1.4272 -7.6529 17.1008 -26.9905 -4.1330 -0.0000 -0.0000 5.3322 11.2109 -7.2011 -1.4232 -7.1250 0.0000 -0.0000 -11.3676 22.6777 6.2258 0.0000 -0.0000 0.0000 89.8930 6.2754 -4.8311 -8.1778 13.8407 -0.9942 0.0000 0.0000 19.8793 -8.8420 -37.9711 5.4671 7.1250 -0.0000 -0.0000 33.2937 -65.3259 -17.2107
